<svg width="200" height="200" viewBox="0 0 200 200" fill="none" xmlns="http://www.w3.org/2000/svg">
<path d="M187.5 0H12.5C5.59646 0 0 5.59646 0 12.5V187.5C0 194.404 5.59646 200 12.5 200H187.5C194.404 200 200 194.404 200 187.5V12.5C200 5.59646 194.404 0 187.5 0Z" fill="#420FE7"/>
<path d="M70.0971 63.9946V114.705C70.0617 121.7 66.9367 125.393 61.2546 125.393C55.8925 125.393 52.4125 122.055 52.3058 116.267H37.0004C36.9293 130.791 47.2987 137.716 60.4733 137.716C75.2108 137.716 85.2604 128.802 85.2958 114.705V63.9946H70.0971ZM146.462 84.9104H161.199C160.986 71.9487 150.333 63 134.14 63C118.195 63 106.512 71.8071 106.583 85.0171C106.547 95.7417 114.111 101.885 126.398 104.832L134.317 106.821C142.236 108.739 146.64 111.011 146.675 115.912C146.64 121.239 141.597 124.861 133.785 124.861C125.795 124.861 120.042 121.167 119.545 113.888H104.665C105.056 129.62 116.313 137.752 133.962 137.752C151.718 137.752 162.158 129.264 162.194 115.947C162.158 103.838 153.032 97.4104 140.39 94.5696L133.855 93.0071C127.535 91.5512 122.243 89.2075 122.35 83.9875C122.35 79.3 126.505 75.855 134.033 75.855C141.384 75.855 145.894 79.1933 146.462 84.9104Z" fill="white"/>
</svg>
